<mxfile host="app.diagrams.net" modified="2021-03-25T10:00:09.387Z" agent="5.0 (Windows NT 10.0; WOW64) AppleWebKit/537.36 (KHTML, like Gecko) Chrome/88.0.4324.182 Safari/537.36" etag="H79f1BIhu3k3QftP2e40" version="14.5.0" type="github">
  <diagram id="80ylbfmTlD60WJI6vFf6" name="Page-1">
    <mxGraphModel dx="2249" dy="762" grid="1" gridSize="10" guides="1" tooltips="1" connect="1" arrows="1" fold="1" page="1" pageScale="1" pageWidth="827" pageHeight="1169" background="#F1FAEE" math="0" shadow="0">
      <root>
        <mxCell id="0" />
        <mxCell id="1" parent="0" />
        <mxCell id="9JsJorUlx26WbjZtNGR6-43" value="" style="edgeStyle=orthogonalEdgeStyle;curved=0;rounded=1;sketch=0;orthogonalLoop=1;jettySize=auto;html=1;strokeColor=#457B9D;fillColor=#A8DADC;fontColor=#1D3557;" edge="1" parent="1" source="9JsJorUlx26WbjZtNGR6-1" target="9JsJorUlx26WbjZtNGR6-42">
          <mxGeometry relative="1" as="geometry" />
        </mxCell>
        <mxCell id="9JsJorUlx26WbjZtNGR6-1" value="用户操作" style="rounded=1;whiteSpace=wrap;html=1;fillColor=#A8DADC;strokeColor=#457B9D;fontColor=#1D3557;" vertex="1" parent="1">
          <mxGeometry x="-480" y="230" width="120" height="60" as="geometry" />
        </mxCell>
        <mxCell id="9JsJorUlx26WbjZtNGR6-45" value="" style="edgeStyle=orthogonalEdgeStyle;curved=0;rounded=1;sketch=0;orthogonalLoop=1;jettySize=auto;html=1;strokeColor=#457B9D;fillColor=#A8DADC;fontColor=#1D3557;" edge="1" parent="1" source="9JsJorUlx26WbjZtNGR6-42" target="9JsJorUlx26WbjZtNGR6-44">
          <mxGeometry relative="1" as="geometry" />
        </mxCell>
        <mxCell id="9JsJorUlx26WbjZtNGR6-42" value="根据用户操作生成请求数据" style="whiteSpace=wrap;html=1;rounded=1;strokeColor=#6c8ebf;fillColor=#dae8fc;" vertex="1" parent="1">
          <mxGeometry x="-480" y="330" width="120" height="60" as="geometry" />
        </mxCell>
        <mxCell id="9JsJorUlx26WbjZtNGR6-47" value="" style="edgeStyle=orthogonalEdgeStyle;curved=0;rounded=1;sketch=0;orthogonalLoop=1;jettySize=auto;html=1;strokeColor=#457B9D;fillColor=#A8DADC;fontColor=#1D3557;" edge="1" parent="1" source="9JsJorUlx26WbjZtNGR6-44" target="9JsJorUlx26WbjZtNGR6-46">
          <mxGeometry relative="1" as="geometry" />
        </mxCell>
        <mxCell id="9JsJorUlx26WbjZtNGR6-44" value="向服务器请求" style="whiteSpace=wrap;html=1;rounded=1;strokeColor=#6c8ebf;fillColor=#dae8fc;" vertex="1" parent="1">
          <mxGeometry x="-480" y="430" width="120" height="60" as="geometry" />
        </mxCell>
        <mxCell id="9JsJorUlx26WbjZtNGR6-49" value="" style="edgeStyle=orthogonalEdgeStyle;curved=0;rounded=1;sketch=0;orthogonalLoop=1;jettySize=auto;html=1;strokeColor=#457B9D;fillColor=#A8DADC;fontColor=#1D3557;" edge="1" parent="1" source="9JsJorUlx26WbjZtNGR6-46" target="9JsJorUlx26WbjZtNGR6-48">
          <mxGeometry relative="1" as="geometry" />
        </mxCell>
        <mxCell id="9JsJorUlx26WbjZtNGR6-46" value="服务器接收请求" style="whiteSpace=wrap;html=1;rounded=1;strokeColor=#6c8ebf;fillColor=#dae8fc;" vertex="1" parent="1">
          <mxGeometry x="-480" y="525" width="120" height="60" as="geometry" />
        </mxCell>
        <mxCell id="9JsJorUlx26WbjZtNGR6-51" value="" style="edgeStyle=orthogonalEdgeStyle;curved=0;rounded=1;sketch=0;orthogonalLoop=1;jettySize=auto;html=1;strokeColor=#457B9D;fillColor=#A8DADC;fontColor=#1D3557;" edge="1" parent="1" source="9JsJorUlx26WbjZtNGR6-48" target="9JsJorUlx26WbjZtNGR6-50">
          <mxGeometry relative="1" as="geometry" />
        </mxCell>
        <mxCell id="9JsJorUlx26WbjZtNGR6-54" value="" style="edgeStyle=orthogonalEdgeStyle;curved=0;rounded=1;sketch=0;orthogonalLoop=1;jettySize=auto;html=1;strokeColor=#457B9D;fillColor=#A8DADC;fontColor=#1D3557;" edge="1" parent="1" source="9JsJorUlx26WbjZtNGR6-48" target="9JsJorUlx26WbjZtNGR6-53">
          <mxGeometry relative="1" as="geometry" />
        </mxCell>
        <mxCell id="9JsJorUlx26WbjZtNGR6-48" value="请求合法？" style="rhombus;whiteSpace=wrap;html=1;rounded=1;fontColor=#ffffff;strokeColor=#B20000;fillColor=#e51400;" vertex="1" parent="1">
          <mxGeometry x="-460" y="655" width="80" height="80" as="geometry" />
        </mxCell>
        <mxCell id="9JsJorUlx26WbjZtNGR6-50" value="返回错误信息" style="ellipse;shape=cloud;whiteSpace=wrap;html=1;rounded=1;fontColor=#ffffff;strokeColor=#B20000;fillColor=#e51400;" vertex="1" parent="1">
          <mxGeometry x="-480" y="815" width="120" height="80" as="geometry" />
        </mxCell>
        <mxCell id="9JsJorUlx26WbjZtNGR6-52" value="不合法" style="text;html=1;strokeColor=none;fillColor=none;align=center;verticalAlign=middle;whiteSpace=wrap;rounded=0;sketch=0;fontColor=#1D3557;" vertex="1" parent="1">
          <mxGeometry x="-430" y="760" width="40" height="20" as="geometry" />
        </mxCell>
        <mxCell id="9JsJorUlx26WbjZtNGR6-57" value="" style="edgeStyle=orthogonalEdgeStyle;curved=0;rounded=1;sketch=0;orthogonalLoop=1;jettySize=auto;html=1;strokeColor=#457B9D;fillColor=#A8DADC;fontColor=#1D3557;" edge="1" parent="1" source="9JsJorUlx26WbjZtNGR6-53" target="9JsJorUlx26WbjZtNGR6-56">
          <mxGeometry relative="1" as="geometry" />
        </mxCell>
        <mxCell id="9JsJorUlx26WbjZtNGR6-53" value="服务器数据库操作" style="whiteSpace=wrap;html=1;rounded=1;fontColor=#1D3557;strokeColor=#457B9D;fillColor=#A8DADC;" vertex="1" parent="1">
          <mxGeometry x="-320" y="665" width="120" height="60" as="geometry" />
        </mxCell>
        <mxCell id="9JsJorUlx26WbjZtNGR6-55" value="合法" style="text;html=1;align=center;verticalAlign=middle;resizable=0;points=[];autosize=1;fontColor=#1D3557;" vertex="1" parent="1">
          <mxGeometry x="-380" y="670" width="40" height="20" as="geometry" />
        </mxCell>
        <mxCell id="9JsJorUlx26WbjZtNGR6-59" value="" style="edgeStyle=orthogonalEdgeStyle;curved=0;rounded=1;sketch=0;orthogonalLoop=1;jettySize=auto;html=1;strokeColor=#457B9D;fillColor=#A8DADC;fontColor=#1D3557;" edge="1" parent="1" source="9JsJorUlx26WbjZtNGR6-56" target="9JsJorUlx26WbjZtNGR6-58">
          <mxGeometry relative="1" as="geometry" />
        </mxCell>
        <mxCell id="9JsJorUlx26WbjZtNGR6-61" value="" style="edgeStyle=orthogonalEdgeStyle;curved=0;rounded=1;sketch=0;orthogonalLoop=1;jettySize=auto;html=1;strokeColor=#457B9D;fillColor=#A8DADC;fontColor=#1D3557;" edge="1" parent="1" source="9JsJorUlx26WbjZtNGR6-56" target="9JsJorUlx26WbjZtNGR6-60">
          <mxGeometry relative="1" as="geometry" />
        </mxCell>
        <mxCell id="9JsJorUlx26WbjZtNGR6-56" value="返回请求数据" style="whiteSpace=wrap;html=1;rounded=1;fontColor=#1D3557;strokeColor=#457B9D;fillColor=#A8DADC;" vertex="1" parent="1">
          <mxGeometry x="-120" y="665" width="120" height="60" as="geometry" />
        </mxCell>
        <mxCell id="9JsJorUlx26WbjZtNGR6-58" value="App端展示" style="whiteSpace=wrap;html=1;rounded=1;strokeColor=#36393d;fillColor=#cdeb8b;" vertex="1" parent="1">
          <mxGeometry x="-120" y="525" width="120" height="60" as="geometry" />
        </mxCell>
        <mxCell id="9JsJorUlx26WbjZtNGR6-60" value="PC端展示" style="whiteSpace=wrap;html=1;rounded=1;strokeColor=#36393d;fillColor=#cdeb8b;" vertex="1" parent="1">
          <mxGeometry x="-120" y="805" width="120" height="60" as="geometry" />
        </mxCell>
      </root>
    </mxGraphModel>
  </diagram>
</mxfile>
